<?xml version="1.0" encoding="iso-8859-1"?>
<!-- Generator: Adobe Illustrator 21.0.0, SVG Export Plug-In . SVG Version: 6.00 Build 0)  -->
<svg xmlns="http://www.w3.org/2000/svg" xmlns:xlink="http://www.w3.org/1999/xlink" version="1.1" id="Capa_1" x="0px" y="0px" viewBox="0 0 512 512" style="enable-background:new 0 0 512 512;" xml:space="preserve" width="512" height="512">
<g>
	<path d="M321.634,257.063l-56.33-51.219l-135.15,87.23h157.63C296.822,279.135,308.309,266.927,321.634,257.063z"/>
	<path d="M141.944,156.515l57.953,55.78l68.526-44.229l66.73,60.677v-96.568H94.196v57.227L141.944,156.515z M209.128,151.95   c8.423,0,14.66,6.884,15.024,15.024c0.363,8.114-7.165,15.024-15.024,15.024c-8.423,0-14.66-6.884-15.024-15.024   C193.74,158.861,201.269,151.95,209.128,151.95z"/>
	<polygon points="138.782,195.179 94.196,225.888 94.196,280.519 173.959,229.037  "/>
	<path d="M265.707,367.766c0-15.62,2.62-30.638,7.435-44.644H64.147V102.127H365.2v133.359c12.127-3.505,24.936-5.39,38.177-5.39   c8.877,0,17.556,0.855,25.97,2.468V35.611H0v352.295h267.184C266.216,381.33,265.707,374.607,265.707,367.766z"/>
	<path style="fill:rgb(0,0,0);" d="M209.128,181.999c7.859,0,15.388-6.91,15.024-15.024c-0.365-8.14-6.601-15.024-15.024-15.024   c-7.859,0-15.388,6.911-15.024,15.024C194.468,175.115,200.705,181.999,209.128,181.999z"/>
	<path d="M403.377,259.143c-59.896,0-108.624,48.728-108.624,108.624c0,59.895,48.728,108.623,108.624,108.623   c59.895,0,108.623-48.728,108.623-108.623C512,307.871,463.272,259.143,403.377,259.143z M362.54,382.791v-30.049h25.813v-25.813   h30.049v25.813h25.812v30.049h-25.812v25.812h-30.049v-25.812H362.54z"/>
</g>















</svg>